<svg width="392" height="70" viewBox="0 0 392 70" fill="none" xmlns="http://www.w3.org/2000/svg">
<path d="M54.5892 12.4721C53.7141 12.532 53.2648 12.5892 52.813 12.5918C50.2604 12.6022 47.7078 12.6048 45.1527 12.597C43.0857 12.5918 41.5095 13.4479 40.4032 15.2096C36.0615 22.1208 31.699 29.0217 27.3625 35.9381C24.384 40.6896 21.5692 45.5504 18.4298 50.1926C16.0797 53.6664 17.9494 56.6927 20.6318 58.0588C21.6627 58.5845 22.9481 58.8134 24.1192 58.816C42.8987 58.8603 61.6782 58.8473 80.4578 58.8499C82.3897 58.8499 82.4806 58.9514 82.3664 60.9212C82.1404 64.84 79.0088 68.6729 75.2357 69.5238C74.0335 69.7944 72.7792 69.974 71.5484 69.9766C51.2108 70.0026 30.8733 69.9896 10.5357 70C6.36796 70 3.161 68.267 1.21086 64.5902C-0.692543 60.9992 -0.269276 57.4577 1.90159 54.0307C5.4617 48.4101 8.92054 42.7271 12.4677 37.0987C19.349 26.1723 26.1888 15.22 33.1843 4.36908C36.6614 -1.02513 44.4775 -1.51954 48.5466 3.4167C50.7694 6.11511 52.465 9.24808 54.5892 12.4721Z" fill="#033C89"/>
<path d="M52.3067 47.757C47.3781 47.757 42.4495 47.7648 37.5235 47.7518C34.9995 47.744 33.8907 45.8939 35.2046 43.7575C38.5934 38.2488 42.0392 32.7713 45.4851 27.2965C46.0927 26.3311 46.9782 25.8341 48.1934 25.8549C50.959 25.9069 53.7271 25.9121 56.4926 25.8549C57.8195 25.8263 58.705 26.4222 59.3672 27.4708C62.7221 32.8 66.0693 38.1343 69.4191 43.4661C69.9904 44.3768 70.3955 45.3266 69.806 46.3753C69.1854 47.4786 68.1908 47.783 66.96 47.7726C62.0755 47.7336 57.1911 47.757 52.3067 47.757Z" fill="#033C89"/>
<path d="M385.036 27.195C385.075 26.521 385.129 26.0292 385.132 25.5348C385.137 19.9845 385.163 14.4341 385.113 8.88378C385.103 7.71803 385.404 7.23403 386.635 7.34072C387.837 7.4448 389.058 7.41618 390.265 7.34852C391.203 7.29648 391.52 7.6894 391.434 8.56111C391.413 8.77449 391.434 8.99567 391.434 9.21165C391.434 26.1229 391.434 43.0315 391.434 59.9428C391.434 61.1779 390.817 61.7972 389.582 61.8007C388.502 61.8007 387.419 61.7721 386.339 61.8059C385.461 61.8345 385.08 61.504 385.126 60.5881C385.184 59.4874 385.139 58.3815 385.139 57.0466C384.672 57.3302 384.394 57.4057 384.275 57.5852C382.304 60.5543 379.331 61.7148 376.007 62.3575C371.878 63.1538 367.913 62.7244 364.168 60.8353C359.141 58.2982 356.482 53.911 355.184 48.6183C353.727 42.675 354.101 36.7968 356.601 31.197C359.634 24.4003 366.259 20.8354 373.955 21.6316C378.001 22.0506 381.569 23.4479 384.231 26.7032C384.373 26.8775 384.633 26.953 385.041 27.195H385.036ZM385.454 42.1442C385.212 40.3956 385.085 38.6235 384.708 36.9061C383.62 31.9178 380.751 28.431 375.664 27.3277C371.224 26.3649 366.633 27.4812 363.826 31.7409C362.444 33.8408 361.753 36.1411 361.369 38.6183C360.722 42.7999 361.076 46.7994 362.867 50.6532C366.292 58.0302 376.469 59.5394 381.8 53.4192C384.599 50.2056 385.29 46.2816 385.451 42.1416L385.454 42.1442Z" fill="#033C89"/>
<path d="M212.039 27.4422C212.14 26.5366 212.247 26.011 212.247 25.4854C212.26 20.0209 212.249 14.5564 212.26 9.09195C212.262 7.38235 212.291 7.36934 214.002 7.36674C215.127 7.36674 216.254 7.40057 217.375 7.35633C218.144 7.3251 218.521 7.59833 218.469 8.39198C218.453 8.65219 218.471 8.9124 218.471 9.17262C218.471 26.0865 218.471 42.9977 218.471 59.9115C218.471 61.7981 218.466 61.7981 216.635 61.8033C215.771 61.8033 214.906 61.8059 214.039 61.8033C212.286 61.7955 212.265 61.7747 212.255 59.9558C212.252 59.3495 212.281 58.7406 212.247 58.1343C212.229 57.8194 212.104 57.5124 211.99 57.0544C211.644 57.3276 211.387 57.4421 211.268 57.6373C209.738 60.1327 207.326 61.3531 204.649 62.0453C200.858 63.0263 197.048 63.0471 193.301 61.7148C188.731 60.0885 185.513 56.9737 183.607 52.5605C180.964 46.4325 180.873 40.1328 182.712 33.7757C184.202 28.6235 187.347 24.8817 192.314 22.7792C198.23 20.2759 206.308 21.5926 210.403 25.7013C210.871 26.1723 211.312 26.6693 212.036 27.4422H212.039ZM212.569 41.0721C212.265 39.6696 211.943 37.2028 211.18 34.8843C209.557 29.948 205.259 27.0571 199.985 27.0623C194.87 27.0675 191.083 29.7607 189.385 34.8166C188.056 38.777 187.861 42.8234 188.72 46.9607C189.777 52.0479 193.109 56.3362 198.617 57.0596C202.231 57.5332 205.493 56.7578 208.167 54.14C211.538 50.8405 212.304 46.586 212.569 41.0721Z" fill="#033C89"/>
<path d="M181.18 56.8644C181.18 58.4517 181.219 59.8699 181.146 61.2829C181.13 61.5769 180.749 62.0037 180.447 62.1051C178.536 62.7583 176.594 63.0315 174.615 62.3497C172.86 61.7434 171.852 60.5178 171.525 58.6989C171.437 58.2097 171.304 57.7284 171.187 57.2287C169.57 58.3841 168.175 59.6357 166.565 60.484C161.302 63.2579 155.773 63.5779 150.294 61.3193C146.809 59.8829 144.885 57.0102 144.67 53.1356C144.488 49.8647 144.737 46.737 147.142 44.1556C149.089 42.0661 151.564 40.9863 154.241 40.4268C158.17 39.6097 162.146 39.0138 166.095 38.2983C167.814 37.986 169.419 37.3407 170.416 35.8288C171.598 34.0386 171.161 30.8379 169.328 29.2949C168.224 28.3633 166.76 27.6425 165.35 27.3433C162.439 26.7266 159.492 26.9269 156.672 28.0224C154.239 28.967 152.86 30.8067 152.504 33.362C152.39 34.1921 152.109 34.4783 151.296 34.4497C149.912 34.4003 148.526 34.4133 147.142 34.4419C146.256 34.4601 146.02 34.0542 146.124 33.2293C146.827 27.6373 150.427 23.6457 155.947 22.3342C160.619 21.2231 165.293 21.2491 169.944 22.3758C174.467 23.4713 177.17 26.9165 177.191 31.5822C177.222 38.699 177.194 45.8132 177.207 52.93C177.207 53.6638 177.235 54.4106 177.375 55.1288C177.703 56.8202 178.398 57.26 180.136 56.992C180.385 56.9529 180.634 56.9295 181.177 56.8618L181.18 56.8644ZM170.824 42.1182C167.355 42.6906 164.08 43.1434 160.847 43.7939C158.713 44.2259 156.55 44.7411 154.553 45.5842C152.114 46.6121 151.117 48.8265 151.211 51.3896C151.302 53.8642 152.595 55.644 155.005 56.4221C158.804 57.6451 162.501 57.247 166.025 55.4411C168.627 54.1088 170.427 51.9646 170.834 49.0659C171.146 46.8567 170.91 44.5694 170.902 42.3185C170.902 42.165 170.777 42.0115 170.824 42.1182Z" fill="#033C89"/>
<path d="M352.873 49.4536C351.561 56.2503 347.336 61.1319 340.13 62.3341C334.096 63.3411 328.513 62.485 323.745 58.3529C320.037 55.1392 318.666 50.7807 317.863 46.1229C317.173 42.1078 317.427 38.1968 318.679 34.3326C320.538 28.5871 324.176 24.4575 329.904 22.4903C334.202 21.0149 338.653 21.0071 342.849 22.8468C347.973 25.0924 350.948 29.3469 352.361 34.6266C353.023 37.1065 353.109 39.7372 353.47 42.3003C353.654 43.6118 353.122 44.0229 351.81 44.0151C343.285 43.9683 334.763 43.9891 326.238 43.9943C324.122 43.9943 323.929 44.1478 324.197 46.1983C324.737 50.3565 326.396 53.9318 330.359 55.795C334.763 57.8689 339.214 57.9183 343.384 55.0378C344.932 53.9683 345.804 52.3576 346.316 50.5803C346.56 49.7346 346.968 49.3963 347.871 49.4354C349.505 49.5082 351.141 49.4562 352.875 49.4562L352.873 49.4536ZM335.477 38.3711C338.845 38.3711 342.216 38.3607 345.584 38.3789C346.363 38.3841 346.825 38.2228 346.7 37.2834C345.648 29.3443 337.708 24.7594 330.538 28.1734C326.757 29.974 325.007 33.31 324.251 37.2704C324.049 38.3373 324.747 38.3737 325.503 38.3737C328.829 38.3659 332.153 38.3711 335.48 38.3711H335.477Z" fill="#033C89"/>
<path d="M136.238 49.5342H142.408C141.548 54.0854 139.564 57.7804 135.61 60.1483C131.302 62.727 126.633 63.1928 121.735 62.3289C117.118 61.5145 113.418 59.3104 110.775 55.4333C108.759 52.4773 107.864 49.0945 107.381 45.5946C106.493 39.1491 107.565 33.1434 111.683 27.9522C114.833 23.9839 119.04 21.8996 124.088 21.59C128.892 21.2933 133.275 22.3238 136.859 25.7898C138.817 27.6868 140.175 29.9792 141.234 32.4565C142.584 35.6129 142.906 38.9722 143.127 42.355C143.208 43.6014 142.738 44.0151 141.494 44.0099C132.971 43.9709 124.449 43.9891 115.926 43.9917C113.753 43.9917 113.569 44.1244 113.789 46.2712C114.576 53.8642 120.593 57.9756 127.814 57.0596C132.291 56.4923 135.142 54.0802 136.235 49.5369L136.238 49.5342ZM125.051 38.3711C128.427 38.3711 131.803 38.3529 135.179 38.3841C136.028 38.3919 136.285 38.1291 136.233 37.247C135.952 32.2899 131.291 27.4812 126.345 27.1169C120.006 26.6485 115.127 30.4112 113.872 36.7318C113.602 38.0979 113.802 38.3659 115.184 38.3711C118.474 38.3815 121.761 38.3737 125.051 38.3711Z" fill="#033C89"/>
<path d="M286.009 56.1072C285.726 56.4481 285.42 56.7708 285.165 57.1325C282.662 60.6662 279.125 62.3497 274.932 62.6594C271.216 62.9326 267.609 62.5293 264.441 60.2186C262.571 58.8551 261.366 57.0284 260.845 54.8556C260.372 52.8936 260.05 50.8457 260.029 48.8343C259.941 40.5075 260.011 32.1806 259.967 23.8538C259.962 22.7401 260.216 22.2613 261.4 22.3758C262.387 22.4721 263.389 22.394 264.384 22.3966C266.254 22.3966 266.261 22.3992 266.261 24.2233C266.264 29.0373 266.261 33.8512 266.261 38.6652C266.261 42.178 266.23 45.6909 266.272 49.2038C266.313 52.8572 268.027 55.6545 271.068 56.6303C276.292 58.3086 283.028 56.4065 285.163 49.9116C285.693 48.2956 285.955 46.5262 285.976 44.8218C286.064 37.8845 286.035 30.9446 285.989 24.0048C285.981 22.8026 286.251 22.2483 287.565 22.3706C288.767 22.4825 289.988 22.4279 291.195 22.3836C292.021 22.355 292.384 22.6516 292.345 23.5077C292.301 24.546 292.335 25.5895 292.335 26.6303C292.335 37.7752 292.335 48.9227 292.335 60.0677C292.335 61.7773 292.317 61.7929 290.585 61.8007C289.676 61.8033 288.765 61.7565 287.861 61.8111C286.812 61.8762 286.363 61.4962 286.42 60.3955C286.49 59.0294 286.438 57.6555 286.438 56.2842C286.295 56.2243 286.15 56.1645 286.007 56.1046L286.009 56.1072Z" fill="#033C89"/>
<path d="M256.17 47.6295C255.89 53.6014 252.039 59.732 246.147 61.5873C240.356 63.4114 234.747 63.1928 229.362 60.2212C226.08 58.4075 223.854 55.6024 222.616 52.1416C220.073 45.0378 220.18 37.8507 223.363 31.0279C226.217 24.9155 231.405 21.8398 238.165 21.5822C242.517 21.4156 246.739 21.9387 250.413 24.533C253.893 26.992 255.69 30.4398 256.131 34.8895C254.054 34.8895 252.125 34.9181 250.195 34.8556C249.933 34.8478 249.544 34.4107 249.455 34.1036C248.289 30.0729 245.69 27.6191 241.517 27.1533C236.511 26.5939 232.358 28.1682 229.757 32.7323C228.063 35.7065 227.692 39.0164 227.674 42.3914C227.653 46.0526 228.219 49.5499 230.336 52.6386C232.849 56.3076 236.459 57.5332 240.712 57.0986C244.072 56.7552 246.859 55.3396 248.469 52.2066C249.035 51.1033 249.416 49.8907 249.757 48.6938C249.967 47.9548 250.242 47.5879 251.065 47.6139C252.738 47.6659 254.412 47.6295 256.17 47.6295Z" fill="#033C89"/>
<path d="M304.454 30.2421C305.282 28.9982 306.033 27.692 306.957 26.5236C309.595 23.1903 313.096 21.6004 317.334 21.5666C318.245 21.5588 318.684 21.8216 318.632 22.8286C318.562 24.2572 318.575 25.6909 318.63 27.1221C318.663 28.025 318.308 28.2514 317.432 28.3633C315.563 28.6053 313.62 28.7875 311.883 29.4562C307.477 31.1554 305.251 34.8218 304.929 39.2767C304.451 45.8783 304.503 52.5215 304.366 59.1465C304.303 62.0531 304.615 61.7955 301.696 61.8007C299.321 61.8059 298.134 60.6315 298.134 58.2774C298.134 46.8697 298.152 35.4593 298.108 24.0516C298.102 22.7766 298.383 22.1911 299.749 22.3732C300.515 22.4747 301.304 22.3914 302.083 22.3914C303.376 22.3914 304.024 23.0203 304.026 24.278C304.026 25.8393 304.02 27.4005 304.031 28.9618C304.033 29.3703 304.085 29.7763 304.114 30.1848C304.228 30.203 304.345 30.2212 304.459 30.2395L304.454 30.2421Z" fill="#033C89"/>
<path d="M97.1651 7.37454C99.11 7.37454 100.871 7.34072 102.629 7.41097C102.904 7.42138 103.267 7.86895 103.397 8.19421C103.535 8.53249 103.444 8.96184 103.444 9.35216C103.444 26.1749 103.444 42.9951 103.444 59.8179C103.444 61.1415 102.769 61.8042 101.419 61.8059C100.51 61.8059 99.5982 61.7539 98.6946 61.8189C97.5494 61.9022 97.1235 61.5379 97.1339 60.2915C97.1937 53.2241 97.1625 46.1567 97.1625 39.0919C97.1625 29.1205 97.1625 19.1492 97.1625 9.17782C97.1625 8.62877 97.1625 8.07972 97.1625 7.37715L97.1651 7.37454Z" fill="#033C89"/>
</svg>
