<svg width="83" height="70" viewBox="0 0 83 70" fill="none" xmlns="http://www.w3.org/2000/svg">
<path d="M54.5892 12.4721C53.7141 12.532 53.2648 12.5892 52.813 12.5918C50.2604 12.6022 47.7078 12.6048 45.1527 12.597C43.0857 12.5918 41.5095 13.4479 40.4033 15.2096C36.0615 22.1208 31.699 29.0217 27.3625 35.9381C24.384 40.6896 21.5692 45.5504 18.4298 50.1926C16.0797 53.6664 17.9494 56.6927 20.6318 58.0588C21.6627 58.5845 22.9481 58.8134 24.1192 58.816C42.8987 58.8603 61.6782 58.8473 80.4578 58.8499C82.3897 58.8499 82.4806 58.9514 82.3663 60.9212C82.1404 64.84 79.0088 68.6729 75.2357 69.5238C74.0335 69.7944 72.7792 69.974 71.5484 69.9766C51.2108 70.0026 30.8733 69.9896 10.5357 70C6.36796 70 3.161 68.267 1.21086 64.5902C-0.692543 60.9992 -0.269276 57.4577 1.90159 54.0307C5.4617 48.4101 8.92054 42.7271 12.4677 37.0987C19.349 26.1723 26.1888 15.22 33.1843 4.36908C36.6614 -1.02513 44.4775 -1.51954 48.5466 3.4167C50.7694 6.11511 52.465 9.24808 54.5892 12.4721Z" fill="#FDFBFB"/>
<path d="M52.3067 47.757C47.3781 47.757 42.4495 47.7648 37.5235 47.7518C34.9995 47.744 33.8907 45.8939 35.2046 43.7575C38.5934 38.2488 42.0392 32.7714 45.4851 27.2965C46.0927 26.3311 46.9782 25.8341 48.1934 25.8549C50.959 25.9069 53.7271 25.9121 56.4926 25.8549C57.8195 25.8263 58.705 26.4222 59.3672 27.4708C62.7221 32.8 66.0693 38.1343 69.4191 43.4661C69.9904 44.3768 70.3955 45.3266 69.806 46.3753C69.1854 47.4786 68.1908 47.783 66.96 47.7726C62.0755 47.7336 57.1911 47.757 52.3067 47.757Z" fill="#FDFBFB"/>
</svg>
